<?xml version="1.0" encoding="UTF-8"?>
<!DOCTYPE svg
PUBLIC "-//W3C//DTD SVG 1.1//EN"
       "http://www.w3.org/Graphics/SVG/1.1/DTD/svg11.dtd">
<svg viewBox="54 24 1057 3074" width="1003px" height="3050px" xmlns="http://www.w3.org/2000/svg" version="1.1">
   <line x1="197" y1="109" x2="207" y2="109" style="stroke:#0bf;stroke-width:1;"/>
   <line x1="334" y1="72" x2="344" y2="72" style="stroke:#0bf;stroke-width:1;"/>
   <line x1="207" y1="109" x2="334" y2="72" style="stroke:#0bf;stroke-width:1;"/>
   <line x1="204.5" y1="109" x2="200.96446609407" y2="112.53553390593" style="stroke:#0bf;stroke-width:2;"/>
   <line x1="204.5" y1="109" x2="200.96446609407" y2="105.46446609407" style="stroke:#0bf;stroke-width:2;"/>
   <line x1="339" y1="72" x2="335.46446609407" y2="75.535533905933" style="stroke:#0bf;stroke-width:2;"/>
   <line x1="339" y1="72" x2="335.46446609407" y2="68.464466094067" style="stroke:#0bf;stroke-width:2;"/>
   <line x1="197" y1="129" x2="207" y2="129" style="stroke:#cb0;stroke-width:1;"/>
   <line x1="336" y1="201" x2="346" y2="201" style="stroke:#cb0;stroke-width:1;"/>
   <line x1="207" y1="129" x2="336" y2="201" style="stroke:#cb0;stroke-width:1;"/>
   <line x1="204.5" y1="129" x2="200.96446609407" y2="132.53553390593" style="stroke:#cb0;stroke-width:2;"/>
   <line x1="204.5" y1="129" x2="200.96446609407" y2="125.46446609407" style="stroke:#cb0;stroke-width:2;"/>
   <line x1="341" y1="201" x2="337.46446609407" y2="204.53553390593" style="stroke:#cb0;stroke-width:2;"/>
   <line x1="341" y1="201" x2="337.46446609407" y2="197.46446609407" style="stroke:#cb0;stroke-width:2;"/>
   <line x1="442" y1="112" x2="452" y2="112" style="stroke:#c00;stroke-width:1;"/>
   <line x1="607" y1="205" x2="617" y2="205" style="stroke:#c00;stroke-width:1;"/>
   <line x1="452" y1="112" x2="607" y2="205" style="stroke:#c00;stroke-width:1;"/>
   <line x1="449.5" y1="112" x2="445.96446609407" y2="115.53553390593" style="stroke:#c00;stroke-width:2;"/>
   <line x1="449.5" y1="112" x2="445.96446609407" y2="108.46446609407" style="stroke:#c00;stroke-width:2;"/>
   <line x1="612" y1="205" x2="608.46446609407" y2="208.53553390593" style="stroke:#c00;stroke-width:2;"/>
   <line x1="612" y1="205" x2="608.46446609407" y2="201.46446609407" style="stroke:#c00;stroke-width:2;"/>
   <line x1="616" y1="94" x2="606" y2="94" style="stroke:#333;stroke-width:1;"/>
   <line x1="452" y1="72" x2="442" y2="72" style="stroke:#333;stroke-width:1;"/>
   <line x1="606" y1="94" x2="452" y2="72" style="stroke:#333;stroke-width:1;"/>
   <line x1="608.5" y1="94" x2="612.03553390593" y2="97.535533905933" style="stroke:#333;stroke-width:2;"/>
   <line x1="608.5" y1="94" x2="612.03553390593" y2="90.464466094067" style="stroke:#333;stroke-width:2;"/>
   <line x1="447" y1="72" x2="450.53553390593" y2="75.535533905933" style="stroke:#333;stroke-width:2;"/>
   <line x1="447" y1="72" x2="450.53553390593" y2="68.464466094067" style="stroke:#333;stroke-width:2;"/>
   <line x1="715" y1="114" x2="725" y2="114" style="stroke:#b0b;stroke-width:1;"/>
   <line x1="902" y1="74" x2="912" y2="74" style="stroke:#b0b;stroke-width:1;"/>
   <line x1="725" y1="114" x2="902" y2="74" style="stroke:#b0b;stroke-width:1;"/>
   <line x1="722.5" y1="114" x2="718.96446609407" y2="117.53553390593" style="stroke:#b0b;stroke-width:2;"/>
   <line x1="722.5" y1="114" x2="718.96446609407" y2="110.46446609407" style="stroke:#b0b;stroke-width:2;"/>
   <line x1="907" y1="74" x2="903.46446609407" y2="77.535533905933" style="stroke:#b0b;stroke-width:2;"/>
   <line x1="907" y1="74" x2="903.46446609407" y2="70.464466094067" style="stroke:#b0b;stroke-width:2;"/>
   <rect width="101" height="20" x="617" y="308" style="fill:#007;stroke:black;"/>
   <text width="101" height="20" x="622" y="322" style="fill:#fff;" font-family="Arial" font-size="16px"> abilities</text>
   <rect width="101" height="20" x="617" y="328" style="fill:#aea;stroke:black;"/>
   <text width="101" height="20" x="622" y="342" style="fill:black;" font-family="Arial" font-size="16px">Ability_ID</text>
   <rect width="101" height="20" x="617" y="348" style="fill:none;stroke:black;"/>
   <text width="101" height="20" x="622" y="362" style="fill:black;" font-family="Arial" font-size="16px">Ability_Name</text>
   <rect width="101" height="20" x="617" y="368" style="fill:none;stroke:black;"/>
   <text width="101" height="20" x="622" y="382" style="fill:black;" font-family="Arial" font-size="16px">Ability_Short</text>
   <rect width="128" height="20" x="69" y="39" style="fill:#007;stroke:black;"/>
   <text width="128" height="20" x="74" y="53" style="fill:#fff;" font-family="Arial" font-size="16px"> characters</text>
   <rect width="128" height="20" x="69" y="59" style="fill:#aea;stroke:black;"/>
   <text width="128" height="20" x="74" y="73" style="fill:black;" font-family="Arial" font-size="16px">Character_ID</text>
   <rect width="128" height="20" x="69" y="79" style="fill:none;stroke:black;"/>
   <text width="128" height="20" x="74" y="93" style="fill:black;" font-family="Arial" font-size="16px">Character_Name</text>
   <rect width="128" height="20" x="69" y="99" style="fill:none;stroke:black;"/>
   <text width="128" height="20" x="74" y="113" style="fill:black;" font-family="Arial" font-size="16px">Class_ID</text>
   <rect width="128" height="20" x="69" y="119" style="fill:none;stroke:black;"/>
   <text width="128" height="20" x="74" y="133" style="fill:black;" font-family="Arial" font-size="16px">Race_ID</text>
   <rect width="128" height="20" x="69" y="139" style="fill:none;stroke:black;"/>
   <text width="128" height="20" x="74" y="153" style="fill:black;" font-family="Arial" font-size="16px">Str_Base</text>
   <rect width="128" height="20" x="69" y="159" style="fill:none;stroke:black;"/>
   <text width="128" height="20" x="74" y="173" style="fill:black;" font-family="Arial" font-size="16px">Dex_Base</text>
   <rect width="128" height="20" x="69" y="179" style="fill:none;stroke:black;"/>
   <text width="128" height="20" x="74" y="193" style="fill:black;" font-family="Arial" font-size="16px">Con_Base</text>
   <rect width="128" height="20" x="69" y="199" style="fill:none;stroke:black;"/>
   <text width="128" height="20" x="74" y="213" style="fill:black;" font-family="Arial" font-size="16px">Int_Base</text>
   <rect width="128" height="20" x="69" y="219" style="fill:none;stroke:black;"/>
   <text width="128" height="20" x="74" y="233" style="fill:black;" font-family="Arial" font-size="16px">Wis_Base</text>
   <rect width="128" height="20" x="69" y="239" style="fill:none;stroke:black;"/>
   <text width="128" height="20" x="74" y="253" style="fill:black;" font-family="Arial" font-size="16px">Cha_Base</text>
   <rect width="128" height="20" x="69" y="259" style="fill:none;stroke:black;"/>
   <text width="128" height="20" x="74" y="273" style="fill:black;" font-family="Arial" font-size="16px">Acrob_Ranks</text>
   <rect width="128" height="20" x="69" y="279" style="fill:none;stroke:black;"/>
   <text width="128" height="20" x="74" y="293" style="fill:black;" font-family="Arial" font-size="16px">Acrob_Racial</text>
   <rect width="128" height="20" x="69" y="299" style="fill:none;stroke:black;"/>
   <text width="128" height="20" x="74" y="313" style="fill:black;" font-family="Arial" font-size="16px">Acrob_Feats</text>
   <rect width="128" height="20" x="69" y="319" style="fill:none;stroke:black;"/>
   <text width="128" height="20" x="74" y="333" style="fill:black;" font-family="Arial" font-size="16px">Acrob_Misc</text>
   <rect width="128" height="20" x="69" y="339" style="fill:none;stroke:black;"/>
   <text width="128" height="20" x="74" y="353" style="fill:black;" font-family="Arial" font-size="16px">Appra_Ranks</text>
   <rect width="128" height="20" x="69" y="359" style="fill:none;stroke:black;"/>
   <text width="128" height="20" x="74" y="373" style="fill:black;" font-family="Arial" font-size="16px">Appra_Racial</text>
   <rect width="128" height="20" x="69" y="379" style="fill:none;stroke:black;"/>
   <text width="128" height="20" x="74" y="393" style="fill:black;" font-family="Arial" font-size="16px">Appra_Feats</text>
   <rect width="128" height="20" x="69" y="399" style="fill:none;stroke:black;"/>
   <text width="128" height="20" x="74" y="413" style="fill:black;" font-family="Arial" font-size="16px">Appra_Misc</text>
   <rect width="128" height="20" x="69" y="419" style="fill:none;stroke:black;"/>
   <text width="128" height="20" x="74" y="433" style="fill:black;" font-family="Arial" font-size="16px">Bluff_Ranks</text>
   <rect width="128" height="20" x="69" y="439" style="fill:none;stroke:black;"/>
   <text width="128" height="20" x="74" y="453" style="fill:black;" font-family="Arial" font-size="16px">Bluff_Racial</text>
   <rect width="128" height="20" x="69" y="459" style="fill:none;stroke:black;"/>
   <text width="128" height="20" x="74" y="473" style="fill:black;" font-family="Arial" font-size="16px">Bluff_Feats</text>
   <rect width="128" height="20" x="69" y="479" style="fill:none;stroke:black;"/>
   <text width="128" height="20" x="74" y="493" style="fill:black;" font-family="Arial" font-size="16px">Bluff_Misc</text>
   <rect width="128" height="20" x="69" y="499" style="fill:none;stroke:black;"/>
   <text width="128" height="20" x="74" y="513" style="fill:black;" font-family="Arial" font-size="16px">Climb_Ranks</text>
   <rect width="128" height="20" x="69" y="519" style="fill:none;stroke:black;"/>
   <text width="128" height="20" x="74" y="533" style="fill:black;" font-family="Arial" font-size="16px">Climb_Racial</text>
   <rect width="128" height="20" x="69" y="539" style="fill:none;stroke:black;"/>
   <text width="128" height="20" x="74" y="553" style="fill:black;" font-family="Arial" font-size="16px">Climb_Feats</text>
   <rect width="128" height="20" x="69" y="559" style="fill:none;stroke:black;"/>
   <text width="128" height="20" x="74" y="573" style="fill:black;" font-family="Arial" font-size="16px">Climb_Misc</text>
   <rect width="128" height="20" x="69" y="579" style="fill:none;stroke:black;"/>
   <text width="128" height="20" x="74" y="593" style="fill:black;" font-family="Arial" font-size="16px">Craft_Ranks</text>
   <rect width="128" height="20" x="69" y="599" style="fill:none;stroke:black;"/>
   <text width="128" height="20" x="74" y="613" style="fill:black;" font-family="Arial" font-size="16px">Craft_Racial</text>
   <rect width="128" height="20" x="69" y="619" style="fill:none;stroke:black;"/>
   <text width="128" height="20" x="74" y="633" style="fill:black;" font-family="Arial" font-size="16px">Craft_Feats</text>
   <rect width="128" height="20" x="69" y="639" style="fill:none;stroke:black;"/>
   <text width="128" height="20" x="74" y="653" style="fill:black;" font-family="Arial" font-size="16px">Craft_Misc</text>
   <rect width="128" height="20" x="69" y="659" style="fill:none;stroke:black;"/>
   <text width="128" height="20" x="74" y="673" style="fill:black;" font-family="Arial" font-size="16px">Diplo_Ranks</text>
   <rect width="128" height="20" x="69" y="679" style="fill:none;stroke:black;"/>
   <text width="128" height="20" x="74" y="693" style="fill:black;" font-family="Arial" font-size="16px">Diplo_Racial</text>
   <rect width="128" height="20" x="69" y="699" style="fill:none;stroke:black;"/>
   <text width="128" height="20" x="74" y="713" style="fill:black;" font-family="Arial" font-size="16px">Diplo_Feats</text>
   <rect width="128" height="20" x="69" y="719" style="fill:none;stroke:black;"/>
   <text width="128" height="20" x="74" y="733" style="fill:black;" font-family="Arial" font-size="16px">Diplo_Misc</text>
   <rect width="128" height="20" x="69" y="739" style="fill:none;stroke:black;"/>
   <text width="128" height="20" x="74" y="753" style="fill:black;" font-family="Arial" font-size="16px">DsDev_Ranks</text>
   <rect width="128" height="20" x="69" y="759" style="fill:none;stroke:black;"/>
   <text width="128" height="20" x="74" y="773" style="fill:black;" font-family="Arial" font-size="16px">DsDev_Racial</text>
   <rect width="128" height="20" x="69" y="779" style="fill:none;stroke:black;"/>
   <text width="128" height="20" x="74" y="793" style="fill:black;" font-family="Arial" font-size="16px">DsDev_Feats</text>
   <rect width="128" height="20" x="69" y="799" style="fill:none;stroke:black;"/>
   <text width="128" height="20" x="74" y="813" style="fill:black;" font-family="Arial" font-size="16px">DsDev_Misc</text>
   <rect width="128" height="20" x="69" y="819" style="fill:none;stroke:black;"/>
   <text width="128" height="20" x="74" y="833" style="fill:black;" font-family="Arial" font-size="16px">Disgu_Ranks</text>
   <rect width="128" height="20" x="69" y="839" style="fill:none;stroke:black;"/>
   <text width="128" height="20" x="74" y="853" style="fill:black;" font-family="Arial" font-size="16px">Disgu_Racial</text>
   <rect width="128" height="20" x="69" y="859" style="fill:none;stroke:black;"/>
   <text width="128" height="20" x="74" y="873" style="fill:black;" font-family="Arial" font-size="16px">Disgu_Feats</text>
   <rect width="128" height="20" x="69" y="879" style="fill:none;stroke:black;"/>
   <text width="128" height="20" x="74" y="893" style="fill:black;" font-family="Arial" font-size="16px">Disgu_Misc</text>
   <rect width="128" height="20" x="69" y="899" style="fill:none;stroke:black;"/>
   <text width="128" height="20" x="74" y="913" style="fill:black;" font-family="Arial" font-size="16px">Escar_Ranks</text>
   <rect width="128" height="20" x="69" y="919" style="fill:none;stroke:black;"/>
   <text width="128" height="20" x="74" y="933" style="fill:black;" font-family="Arial" font-size="16px">Escar_Racial</text>
   <rect width="128" height="20" x="69" y="939" style="fill:none;stroke:black;"/>
   <text width="128" height="20" x="74" y="953" style="fill:black;" font-family="Arial" font-size="16px">Escar_Feats</text>
   <rect width="128" height="20" x="69" y="959" style="fill:none;stroke:black;"/>
   <text width="128" height="20" x="74" y="973" style="fill:black;" font-family="Arial" font-size="16px">Escar_Misc</text>
   <rect width="128" height="20" x="69" y="979" style="fill:none;stroke:black;"/>
   <text width="128" height="20" x="74" y="993" style="fill:black;" font-family="Arial" font-size="16px">Fly_Ranks</text>
   <rect width="128" height="20" x="69" y="999" style="fill:none;stroke:black;"/>
   <text width="128" height="20" x="74" y="1013" style="fill:black;" font-family="Arial" font-size="16px">Fly_Racial</text>
   <rect width="128" height="20" x="69" y="1019" style="fill:none;stroke:black;"/>
   <text width="128" height="20" x="74" y="1033" style="fill:black;" font-family="Arial" font-size="16px">Fly_Feats</text>
   <rect width="128" height="20" x="69" y="1039" style="fill:none;stroke:black;"/>
   <text width="128" height="20" x="74" y="1053" style="fill:black;" font-family="Arial" font-size="16px">Fly_Misc</text>
   <rect width="128" height="20" x="69" y="1059" style="fill:none;stroke:black;"/>
   <text width="128" height="20" x="74" y="1073" style="fill:black;" font-family="Arial" font-size="16px">Hanim_Ranks</text>
   <rect width="128" height="20" x="69" y="1079" style="fill:none;stroke:black;"/>
   <text width="128" height="20" x="74" y="1093" style="fill:black;" font-family="Arial" font-size="16px">Hanim_Racial</text>
   <rect width="128" height="20" x="69" y="1099" style="fill:none;stroke:black;"/>
   <text width="128" height="20" x="74" y="1113" style="fill:black;" font-family="Arial" font-size="16px">Hanim_Feats</text>
   <rect width="128" height="20" x="69" y="1119" style="fill:none;stroke:black;"/>
   <text width="128" height="20" x="74" y="1133" style="fill:black;" font-family="Arial" font-size="16px">Hanim_Misc</text>
   <rect width="128" height="20" x="69" y="1139" style="fill:none;stroke:black;"/>
   <text width="128" height="20" x="74" y="1153" style="fill:black;" font-family="Arial" font-size="16px">Heal_Ranks</text>
   <rect width="128" height="20" x="69" y="1159" style="fill:none;stroke:black;"/>
   <text width="128" height="20" x="74" y="1173" style="fill:black;" font-family="Arial" font-size="16px">Heal_Racial</text>
   <rect width="128" height="20" x="69" y="1179" style="fill:none;stroke:black;"/>
   <text width="128" height="20" x="74" y="1193" style="fill:black;" font-family="Arial" font-size="16px">Heal_Feats</text>
   <rect width="128" height="20" x="69" y="1199" style="fill:none;stroke:black;"/>
   <text width="128" height="20" x="74" y="1213" style="fill:black;" font-family="Arial" font-size="16px">Heal_Misc</text>
   <rect width="128" height="20" x="69" y="1219" style="fill:none;stroke:black;"/>
   <text width="128" height="20" x="74" y="1233" style="fill:black;" font-family="Arial" font-size="16px">Intim_Ranks</text>
   <rect width="128" height="20" x="69" y="1239" style="fill:none;stroke:black;"/>
   <text width="128" height="20" x="74" y="1253" style="fill:black;" font-family="Arial" font-size="16px">Intim_Racial</text>
   <rect width="128" height="20" x="69" y="1259" style="fill:none;stroke:black;"/>
   <text width="128" height="20" x="74" y="1273" style="fill:black;" font-family="Arial" font-size="16px">Intim_Feats</text>
   <rect width="128" height="20" x="69" y="1279" style="fill:none;stroke:black;"/>
   <text width="128" height="20" x="74" y="1293" style="fill:black;" font-family="Arial" font-size="16px">Intim_Misc</text>
   <rect width="128" height="20" x="69" y="1299" style="fill:none;stroke:black;"/>
   <text width="128" height="20" x="74" y="1313" style="fill:black;" font-family="Arial" font-size="16px">Karca_Ranks</text>
   <rect width="128" height="20" x="69" y="1319" style="fill:none;stroke:black;"/>
   <text width="128" height="20" x="74" y="1333" style="fill:black;" font-family="Arial" font-size="16px">Karca_Racial</text>
   <rect width="128" height="20" x="69" y="1339" style="fill:none;stroke:black;"/>
   <text width="128" height="20" x="74" y="1353" style="fill:black;" font-family="Arial" font-size="16px">Karca_Feats</text>
   <rect width="128" height="20" x="69" y="1359" style="fill:none;stroke:black;"/>
   <text width="128" height="20" x="74" y="1373" style="fill:black;" font-family="Arial" font-size="16px">Karca_Misc</text>
   <rect width="128" height="20" x="69" y="1379" style="fill:none;stroke:black;"/>
   <text width="128" height="20" x="74" y="1393" style="fill:black;" font-family="Arial" font-size="16px">Kdung_Ranks</text>
   <rect width="128" height="20" x="69" y="1399" style="fill:none;stroke:black;"/>
   <text width="128" height="20" x="74" y="1413" style="fill:black;" font-family="Arial" font-size="16px">Kdung_Racial</text>
   <rect width="128" height="20" x="69" y="1419" style="fill:none;stroke:black;"/>
   <text width="128" height="20" x="74" y="1433" style="fill:black;" font-family="Arial" font-size="16px">Kdung_Feats</text>
   <rect width="128" height="20" x="69" y="1439" style="fill:none;stroke:black;"/>
   <text width="128" height="20" x="74" y="1453" style="fill:black;" font-family="Arial" font-size="16px">Kdung_Misc</text>
   <rect width="128" height="20" x="69" y="1459" style="fill:none;stroke:black;"/>
   <text width="128" height="20" x="74" y="1473" style="fill:black;" font-family="Arial" font-size="16px">Kengi_Ranks</text>
   <rect width="128" height="20" x="69" y="1479" style="fill:none;stroke:black;"/>
   <text width="128" height="20" x="74" y="1493" style="fill:black;" font-family="Arial" font-size="16px">Kengi_Racial</text>
   <rect width="128" height="20" x="69" y="1499" style="fill:none;stroke:black;"/>
   <text width="128" height="20" x="74" y="1513" style="fill:black;" font-family="Arial" font-size="16px">Kengi_Feats</text>
   <rect width="128" height="20" x="69" y="1519" style="fill:none;stroke:black;"/>
   <text width="128" height="20" x="74" y="1533" style="fill:black;" font-family="Arial" font-size="16px">Kengi_Misc</text>
   <rect width="128" height="20" x="69" y="1539" style="fill:none;stroke:black;"/>
   <text width="128" height="20" x="74" y="1553" style="fill:black;" font-family="Arial" font-size="16px">Kgeog_Ranks</text>
   <rect width="128" height="20" x="69" y="1559" style="fill:none;stroke:black;"/>
   <text width="128" height="20" x="74" y="1573" style="fill:black;" font-family="Arial" font-size="16px">Kgeog_Racial</text>
   <rect width="128" height="20" x="69" y="1579" style="fill:none;stroke:black;"/>
   <text width="128" height="20" x="74" y="1593" style="fill:black;" font-family="Arial" font-size="16px">Kgeog_Feats</text>
   <rect width="128" height="20" x="69" y="1599" style="fill:none;stroke:black;"/>
   <text width="128" height="20" x="74" y="1613" style="fill:black;" font-family="Arial" font-size="16px">Kgeog_Misc</text>
   <rect width="128" height="20" x="69" y="1619" style="fill:none;stroke:black;"/>
   <text width="128" height="20" x="74" y="1633" style="fill:black;" font-family="Arial" font-size="16px">Khist_Ranks</text>
   <rect width="128" height="20" x="69" y="1639" style="fill:none;stroke:black;"/>
   <text width="128" height="20" x="74" y="1653" style="fill:black;" font-family="Arial" font-size="16px">Khist_Racial</text>
   <rect width="128" height="20" x="69" y="1659" style="fill:none;stroke:black;"/>
   <text width="128" height="20" x="74" y="1673" style="fill:black;" font-family="Arial" font-size="16px">Khist_Feats</text>
   <rect width="128" height="20" x="69" y="1679" style="fill:none;stroke:black;"/>
   <text width="128" height="20" x="74" y="1693" style="fill:black;" font-family="Arial" font-size="16px">Khist_Misc</text>
   <rect width="128" height="20" x="69" y="1699" style="fill:none;stroke:black;"/>
   <text width="128" height="20" x="74" y="1713" style="fill:black;" font-family="Arial" font-size="16px">Kloca_Ranks</text>
   <rect width="128" height="20" x="69" y="1719" style="fill:none;stroke:black;"/>
   <text width="128" height="20" x="74" y="1733" style="fill:black;" font-family="Arial" font-size="16px">Kloca_Racial</text>
   <rect width="128" height="20" x="69" y="1739" style="fill:none;stroke:black;"/>
   <text width="128" height="20" x="74" y="1753" style="fill:black;" font-family="Arial" font-size="16px">Kloca_Feats</text>
   <rect width="128" height="20" x="69" y="1759" style="fill:none;stroke:black;"/>
   <text width="128" height="20" x="74" y="1773" style="fill:black;" font-family="Arial" font-size="16px">Kloca_Misc</text>
   <rect width="128" height="20" x="69" y="1779" style="fill:none;stroke:black;"/>
   <text width="128" height="20" x="74" y="1793" style="fill:black;" font-family="Arial" font-size="16px">Knatu_Ranks</text>
   <rect width="128" height="20" x="69" y="1799" style="fill:none;stroke:black;"/>
   <text width="128" height="20" x="74" y="1813" style="fill:black;" font-family="Arial" font-size="16px">Knatu_Racial</text>
   <rect width="128" height="20" x="69" y="1819" style="fill:none;stroke:black;"/>
   <text width="128" height="20" x="74" y="1833" style="fill:black;" font-family="Arial" font-size="16px">Knatu_Feats</text>
   <rect width="128" height="20" x="69" y="1839" style="fill:none;stroke:black;"/>
   <text width="128" height="20" x="74" y="1853" style="fill:black;" font-family="Arial" font-size="16px">Knatu_Misc</text>
   <rect width="128" height="20" x="69" y="1859" style="fill:none;stroke:black;"/>
   <text width="128" height="20" x="74" y="1873" style="fill:black;" font-family="Arial" font-size="16px">Knobi_Ranks</text>
   <rect width="128" height="20" x="69" y="1879" style="fill:none;stroke:black;"/>
   <text width="128" height="20" x="74" y="1893" style="fill:black;" font-family="Arial" font-size="16px">Knobi_Racial</text>
   <rect width="128" height="20" x="69" y="1899" style="fill:none;stroke:black;"/>
   <text width="128" height="20" x="74" y="1913" style="fill:black;" font-family="Arial" font-size="16px">Knobi_Feats</text>
   <rect width="128" height="20" x="69" y="1919" style="fill:none;stroke:black;"/>
   <text width="128" height="20" x="74" y="1933" style="fill:black;" font-family="Arial" font-size="16px">Knobi_Misc</text>
   <rect width="128" height="20" x="69" y="1939" style="fill:none;stroke:black;"/>
   <text width="128" height="20" x="74" y="1953" style="fill:black;" font-family="Arial" font-size="16px">Kplan_Ranks</text>
   <rect width="128" height="20" x="69" y="1959" style="fill:none;stroke:black;"/>
   <text width="128" height="20" x="74" y="1973" style="fill:black;" font-family="Arial" font-size="16px">Kplan_Racial</text>
   <rect width="128" height="20" x="69" y="1979" style="fill:none;stroke:black;"/>
   <text width="128" height="20" x="74" y="1993" style="fill:black;" font-family="Arial" font-size="16px">Kplan_Feats</text>
   <rect width="128" height="20" x="69" y="1999" style="fill:none;stroke:black;"/>
   <text width="128" height="20" x="74" y="2013" style="fill:black;" font-family="Arial" font-size="16px">Kplan_Misc</text>
   <rect width="128" height="20" x="69" y="2019" style="fill:none;stroke:black;"/>
   <text width="128" height="20" x="74" y="2033" style="fill:black;" font-family="Arial" font-size="16px">Kreli_Ranks</text>
   <rect width="128" height="20" x="69" y="2039" style="fill:none;stroke:black;"/>
   <text width="128" height="20" x="74" y="2053" style="fill:black;" font-family="Arial" font-size="16px">Kreli_Racial</text>
   <rect width="128" height="20" x="69" y="2059" style="fill:none;stroke:black;"/>
   <text width="128" height="20" x="74" y="2073" style="fill:black;" font-family="Arial" font-size="16px">Kreli_Feats</text>
   <rect width="128" height="20" x="69" y="2079" style="fill:none;stroke:black;"/>
   <text width="128" height="20" x="74" y="2093" style="fill:black;" font-family="Arial" font-size="16px">Kreli_Misc</text>
   <rect width="128" height="20" x="69" y="2099" style="fill:none;stroke:black;"/>
   <text width="128" height="20" x="74" y="2113" style="fill:black;" font-family="Arial" font-size="16px">Lingu_Ranks</text>
   <rect width="128" height="20" x="69" y="2119" style="fill:none;stroke:black;"/>
   <text width="128" height="20" x="74" y="2133" style="fill:black;" font-family="Arial" font-size="16px">Lingu_Racial</text>
   <rect width="128" height="20" x="69" y="2139" style="fill:none;stroke:black;"/>
   <text width="128" height="20" x="74" y="2153" style="fill:black;" font-family="Arial" font-size="16px">Lingu_Feats</text>
   <rect width="128" height="20" x="69" y="2159" style="fill:none;stroke:black;"/>
   <text width="128" height="20" x="74" y="2173" style="fill:black;" font-family="Arial" font-size="16px">Lingu_Misc</text>
   <rect width="128" height="20" x="69" y="2179" style="fill:none;stroke:black;"/>
   <text width="128" height="20" x="74" y="2193" style="fill:black;" font-family="Arial" font-size="16px">Perce_Ranks</text>
   <rect width="128" height="20" x="69" y="2199" style="fill:none;stroke:black;"/>
   <text width="128" height="20" x="74" y="2213" style="fill:black;" font-family="Arial" font-size="16px">Perce_Racial</text>
   <rect width="128" height="20" x="69" y="2219" style="fill:none;stroke:black;"/>
   <text width="128" height="20" x="74" y="2233" style="fill:black;" font-family="Arial" font-size="16px">Perce_Feats</text>
   <rect width="128" height="20" x="69" y="2239" style="fill:none;stroke:black;"/>
   <text width="128" height="20" x="74" y="2253" style="fill:black;" font-family="Arial" font-size="16px">Perce_Misc</text>
   <rect width="128" height="20" x="69" y="2259" style="fill:none;stroke:black;"/>
   <text width="128" height="20" x="74" y="2273" style="fill:black;" font-family="Arial" font-size="16px">Perfo_Ranks</text>
   <rect width="128" height="20" x="69" y="2279" style="fill:none;stroke:black;"/>
   <text width="128" height="20" x="74" y="2293" style="fill:black;" font-family="Arial" font-size="16px">Perfo_Racial</text>
   <rect width="128" height="20" x="69" y="2299" style="fill:none;stroke:black;"/>
   <text width="128" height="20" x="74" y="2313" style="fill:black;" font-family="Arial" font-size="16px">Perfo_Feats</text>
   <rect width="128" height="20" x="69" y="2319" style="fill:none;stroke:black;"/>
   <text width="128" height="20" x="74" y="2333" style="fill:black;" font-family="Arial" font-size="16px">Perfo_Misc</text>
   <rect width="128" height="20" x="69" y="2339" style="fill:none;stroke:black;"/>
   <text width="128" height="20" x="74" y="2353" style="fill:black;" font-family="Arial" font-size="16px">Profe_Ranks</text>
   <rect width="128" height="20" x="69" y="2359" style="fill:none;stroke:black;"/>
   <text width="128" height="20" x="74" y="2373" style="fill:black;" font-family="Arial" font-size="16px">Profe_Racial</text>
   <rect width="128" height="20" x="69" y="2379" style="fill:none;stroke:black;"/>
   <text width="128" height="20" x="74" y="2393" style="fill:black;" font-family="Arial" font-size="16px">Profe_Feats</text>
   <rect width="128" height="20" x="69" y="2399" style="fill:none;stroke:black;"/>
   <text width="128" height="20" x="74" y="2413" style="fill:black;" font-family="Arial" font-size="16px">Profe_Misc</text>
   <rect width="128" height="20" x="69" y="2419" style="fill:none;stroke:black;"/>
   <text width="128" height="20" x="74" y="2433" style="fill:black;" font-family="Arial" font-size="16px">Ride_Ranks</text>
   <rect width="128" height="20" x="69" y="2439" style="fill:none;stroke:black;"/>
   <text width="128" height="20" x="74" y="2453" style="fill:black;" font-family="Arial" font-size="16px">Ride_Racial</text>
   <rect width="128" height="20" x="69" y="2459" style="fill:none;stroke:black;"/>
   <text width="128" height="20" x="74" y="2473" style="fill:black;" font-family="Arial" font-size="16px">Ride_Feats</text>
   <rect width="128" height="20" x="69" y="2479" style="fill:none;stroke:black;"/>
   <text width="128" height="20" x="74" y="2493" style="fill:black;" font-family="Arial" font-size="16px">Ride_Misc</text>
   <rect width="128" height="20" x="69" y="2499" style="fill:none;stroke:black;"/>
   <text width="128" height="20" x="74" y="2513" style="fill:black;" font-family="Arial" font-size="16px">Senmo_Ranks</text>
   <rect width="128" height="20" x="69" y="2519" style="fill:none;stroke:black;"/>
   <text width="128" height="20" x="74" y="2533" style="fill:black;" font-family="Arial" font-size="16px">Senmo_Racial</text>
   <rect width="128" height="20" x="69" y="2539" style="fill:none;stroke:black;"/>
   <text width="128" height="20" x="74" y="2553" style="fill:black;" font-family="Arial" font-size="16px">Senmo_Feats</text>
   <rect width="128" height="20" x="69" y="2559" style="fill:none;stroke:black;"/>
   <text width="128" height="20" x="74" y="2573" style="fill:black;" font-family="Arial" font-size="16px">Senmo_Misc</text>
   <rect width="128" height="20" x="69" y="2579" style="fill:none;stroke:black;"/>
   <text width="128" height="20" x="74" y="2593" style="fill:black;" font-family="Arial" font-size="16px">SOH_Ranks</text>
   <rect width="128" height="20" x="69" y="2599" style="fill:none;stroke:black;"/>
   <text width="128" height="20" x="74" y="2613" style="fill:black;" font-family="Arial" font-size="16px">SOH_Racial</text>
   <rect width="128" height="20" x="69" y="2619" style="fill:none;stroke:black;"/>
   <text width="128" height="20" x="74" y="2633" style="fill:black;" font-family="Arial" font-size="16px">SOH_Feats</text>
   <rect width="128" height="20" x="69" y="2639" style="fill:none;stroke:black;"/>
   <text width="128" height="20" x="74" y="2653" style="fill:black;" font-family="Arial" font-size="16px">SOH_Misc</text>
   <rect width="128" height="20" x="69" y="2659" style="fill:none;stroke:black;"/>
   <text width="128" height="20" x="74" y="2673" style="fill:black;" font-family="Arial" font-size="16px">Spcft_Ranks</text>
   <rect width="128" height="20" x="69" y="2679" style="fill:none;stroke:black;"/>
   <text width="128" height="20" x="74" y="2693" style="fill:black;" font-family="Arial" font-size="16px">Spcft_Racial</text>
   <rect width="128" height="20" x="69" y="2699" style="fill:none;stroke:black;"/>
   <text width="128" height="20" x="74" y="2713" style="fill:black;" font-family="Arial" font-size="16px">Spcft_Feats</text>
   <rect width="128" height="20" x="69" y="2719" style="fill:none;stroke:black;"/>
   <text width="128" height="20" x="74" y="2733" style="fill:black;" font-family="Arial" font-size="16px">Spcft_Misc</text>
   <rect width="128" height="20" x="69" y="2739" style="fill:none;stroke:black;"/>
   <text width="128" height="20" x="74" y="2753" style="fill:black;" font-family="Arial" font-size="16px">Stlth_Ranks</text>
   <rect width="128" height="20" x="69" y="2759" style="fill:none;stroke:black;"/>
   <text width="128" height="20" x="74" y="2773" style="fill:black;" font-family="Arial" font-size="16px">Stlth_Racial</text>
   <rect width="128" height="20" x="69" y="2779" style="fill:none;stroke:black;"/>
   <text width="128" height="20" x="74" y="2793" style="fill:black;" font-family="Arial" font-size="16px">Stlth_Feats</text>
   <rect width="128" height="20" x="69" y="2799" style="fill:none;stroke:black;"/>
   <text width="128" height="20" x="74" y="2813" style="fill:black;" font-family="Arial" font-size="16px">Stlth_Misc</text>
   <rect width="128" height="20" x="69" y="2819" style="fill:none;stroke:black;"/>
   <text width="128" height="20" x="74" y="2833" style="fill:black;" font-family="Arial" font-size="16px">Survi_Ranks</text>
   <rect width="128" height="20" x="69" y="2839" style="fill:none;stroke:black;"/>
   <text width="128" height="20" x="74" y="2853" style="fill:black;" font-family="Arial" font-size="16px">Survi_Racial</text>
   <rect width="128" height="20" x="69" y="2859" style="fill:none;stroke:black;"/>
   <text width="128" height="20" x="74" y="2873" style="fill:black;" font-family="Arial" font-size="16px">Survi_Feats</text>
   <rect width="128" height="20" x="69" y="2879" style="fill:none;stroke:black;"/>
   <text width="128" height="20" x="74" y="2893" style="fill:black;" font-family="Arial" font-size="16px">Survi_Misc</text>
   <rect width="128" height="20" x="69" y="2899" style="fill:none;stroke:black;"/>
   <text width="128" height="20" x="74" y="2913" style="fill:black;" font-family="Arial" font-size="16px">Swim_Ranks</text>
   <rect width="128" height="20" x="69" y="2919" style="fill:none;stroke:black;"/>
   <text width="128" height="20" x="74" y="2933" style="fill:black;" font-family="Arial" font-size="16px">Swim_Racial</text>
   <rect width="128" height="20" x="69" y="2939" style="fill:none;stroke:black;"/>
   <text width="128" height="20" x="74" y="2953" style="fill:black;" font-family="Arial" font-size="16px">Swim_Feats</text>
   <rect width="128" height="20" x="69" y="2959" style="fill:none;stroke:black;"/>
   <text width="128" height="20" x="74" y="2973" style="fill:black;" font-family="Arial" font-size="16px">Swim_Misc</text>
   <rect width="128" height="20" x="69" y="2979" style="fill:none;stroke:black;"/>
   <text width="128" height="20" x="74" y="2993" style="fill:black;" font-family="Arial" font-size="16px">Umdev_Ranks</text>
   <rect width="128" height="20" x="69" y="2999" style="fill:none;stroke:black;"/>
   <text width="128" height="20" x="74" y="3013" style="fill:black;" font-family="Arial" font-size="16px">Umdev_Racial</text>
   <rect width="128" height="20" x="69" y="3019" style="fill:none;stroke:black;"/>
   <text width="128" height="20" x="74" y="3033" style="fill:black;" font-family="Arial" font-size="16px">Umdev_Feats</text>
   <rect width="128" height="20" x="69" y="3039" style="fill:none;stroke:black;"/>
   <text width="128" height="20" x="74" y="3053" style="fill:black;" font-family="Arial" font-size="16px">Umdev_Misc</text>
   <rect width="98" height="20" x="344" y="42" style="fill:#007;stroke:black;"/>
   <text width="98" height="20" x="349" y="56" style="fill:#fff;" font-family="Arial" font-size="16px"> classes</text>
   <rect width="98" height="20" x="344" y="62" style="fill:#aea;stroke:black;"/>
   <text width="98" height="20" x="349" y="76" style="fill:black;" font-family="Arial" font-size="16px">Class_ID</text>
   <rect width="98" height="20" x="344" y="82" style="fill:none;stroke:black;"/>
   <text width="98" height="20" x="349" y="96" style="fill:black;" font-family="Arial" font-size="16px">Class_Name</text>
   <rect width="98" height="20" x="344" y="102" style="fill:none;stroke:black;"/>
   <text width="98" height="20" x="349" y="116" style="fill:black;" font-family="Arial" font-size="16px">Die_ID</text>
   <rect width="99" height="20" x="616" y="44" style="fill:#007;stroke:black;"/>
   <text width="99" height="20" x="621" y="58" style="fill:#fff;" font-family="Arial" font-size="16px"> classes_skills</text>
   <rect width="99" height="20" x="616" y="64" style="fill:#aea;stroke:black;"/>
   <text width="99" height="20" x="621" y="78" style="fill:black;" font-family="Arial" font-size="16px">C_S_ID</text>
   <rect width="99" height="20" x="616" y="84" style="fill:none;stroke:black;"/>
   <text width="99" height="20" x="621" y="98" style="fill:black;" font-family="Arial" font-size="16px">Class_ID</text>
   <rect width="99" height="20" x="616" y="104" style="fill:none;stroke:black;"/>
   <text width="99" height="20" x="621" y="118" style="fill:black;" font-family="Arial" font-size="16px">Skill_ID</text>
   <rect width="79" height="20" x="617" y="175" style="fill:#007;stroke:black;"/>
   <text width="79" height="20" x="622" y="189" style="fill:#fff;" font-family="Arial" font-size="16px"> dice</text>
   <rect width="79" height="20" x="617" y="195" style="fill:#aea;stroke:black;"/>
   <text width="79" height="20" x="622" y="209" style="fill:black;" font-family="Arial" font-size="16px">Die_ID</text>
   <rect width="79" height="20" x="617" y="215" style="fill:none;stroke:black;"/>
   <text width="79" height="20" x="622" y="229" style="fill:black;" font-family="Arial" font-size="16px">Die_Sides</text>
   <rect width="109" height="20" x="346" y="171" style="fill:#007;stroke:black;"/>
   <text width="109" height="20" x="351" y="185" style="fill:#fff;" font-family="Arial" font-size="16px"> races</text>
   <rect width="109" height="20" x="346" y="191" style="fill:#aea;stroke:black;"/>
   <text width="109" height="20" x="351" y="205" style="fill:black;" font-family="Arial" font-size="16px">Race_ID</text>
   <rect width="109" height="20" x="346" y="211" style="fill:none;stroke:black;"/>
   <text width="109" height="20" x="351" y="225" style="fill:black;" font-family="Arial" font-size="16px">Race_Name</text>
   <rect width="109" height="20" x="346" y="231" style="fill:none;stroke:black;"/>
   <text width="109" height="20" x="351" y="245" style="fill:black;" font-family="Arial" font-size="16px">Str_Mod</text>
   <rect width="109" height="20" x="346" y="251" style="fill:none;stroke:black;"/>
   <text width="109" height="20" x="351" y="265" style="fill:black;" font-family="Arial" font-size="16px">Dex_Mod</text>
   <rect width="109" height="20" x="346" y="271" style="fill:none;stroke:black;"/>
   <text width="109" height="20" x="351" y="285" style="fill:black;" font-family="Arial" font-size="16px">Con_Mod</text>
   <rect width="109" height="20" x="346" y="291" style="fill:none;stroke:black;"/>
   <text width="109" height="20" x="351" y="305" style="fill:black;" font-family="Arial" font-size="16px">Int_Mod</text>
   <rect width="109" height="20" x="346" y="311" style="fill:none;stroke:black;"/>
   <text width="109" height="20" x="351" y="325" style="fill:black;" font-family="Arial" font-size="16px">Wis_Mod</text>
   <rect width="109" height="20" x="346" y="331" style="fill:none;stroke:black;"/>
   <text width="109" height="20" x="351" y="345" style="fill:black;" font-family="Arial" font-size="16px">Cha_Mod</text>
   <rect width="109" height="20" x="346" y="351" style="fill:none;stroke:black;"/>
   <text width="109" height="20" x="351" y="365" style="fill:black;" font-family="Arial" font-size="16px">Wildcard_Mod</text>
   <rect width="130" height="20" x="912" y="44" style="fill:#007;stroke:black;"/>
   <text width="130" height="20" x="917" y="58" style="fill:#fff;" font-family="Arial" font-size="16px"> skills</text>
   <rect width="130" height="20" x="912" y="64" style="fill:#aea;stroke:black;"/>
   <text width="130" height="20" x="917" y="78" style="fill:black;" font-family="Arial" font-size="16px">Skill_ID</text>
   <rect width="130" height="20" x="912" y="84" style="fill:none;stroke:black;"/>
   <text width="130" height="20" x="917" y="98" style="fill:black;" font-family="Arial" font-size="16px">Skill_Name</text>
   <rect width="130" height="20" x="912" y="104" style="fill:none;stroke:black;"/>
   <text width="130" height="20" x="917" y="118" style="fill:black;" font-family="Arial" font-size="16px">Ability_ID</text>
   <rect width="130" height="20" x="912" y="124" style="fill:none;stroke:black;"/>
   <text width="130" height="20" x="917" y="138" style="fill:black;" font-family="Arial" font-size="16px">Is_Untrained</text>
   <rect width="130" height="20" x="912" y="144" style="fill:none;stroke:black;"/>
   <text width="130" height="20" x="917" y="158" style="fill:black;" font-family="Arial" font-size="16px">Armored_Penalty</text>
   <rect width="130" height="20" x="912" y="164" style="fill:none;stroke:black;"/>
   <text width="130" height="20" x="917" y="178" style="fill:black;" font-family="Arial" font-size="16px">Short_Name</text>
</svg>
